<svg xmlns="http://www.w3.org/2000/svg" xmlns:xlink="http://www.w3.org/1999/xlink" width="1080" zoomAndPan="magnify" viewBox="0 0 810 809.999993" height="1080" preserveAspectRatio="xMidYMid meet" version="1.0"><defs><clipPath id="8bfb45b021"><path d="M 151 143.375 L 663.988281 143.375 L 663.988281 642.875 L 151 642.875 Z M 151 143.375 " clip-rule="nonzero"/></clipPath><clipPath id="f108a77663"><path d="M 176 338.523438 L 318.691406 338.523438 L 318.691406 481.214844 L 176 481.214844 Z M 176 338.523438 " clip-rule="nonzero"/></clipPath><clipPath id="b8db79d474"><path d="M 247.347656 338.523438 C 207.941406 338.523438 176 370.464844 176 409.871094 C 176 449.273438 207.941406 481.214844 247.347656 481.214844 C 286.75 481.214844 318.691406 449.273438 318.691406 409.871094 C 318.691406 370.464844 286.75 338.523438 247.347656 338.523438 Z M 247.347656 338.523438 " clip-rule="nonzero"/></clipPath><clipPath id="9af309498a"><path d="M 211 356.367188 L 283.714844 356.367188 L 283.714844 463.617188 L 211 463.617188 Z M 211 356.367188 " clip-rule="nonzero"/></clipPath></defs><rect x="-81" width="972" fill="#ffffff" y="-80.999999" height="971.999992" fill-opacity="1"/><rect x="-81" width="972" fill="#000000" y="-80.999999" height="971.999992" fill-opacity="1"/><g clip-path="url(#8bfb45b021)"><path fill="#ffffff" d="M 374.992188 207.398438 C 374.992188 205.296875 376.09375 203.441406 377.75 202.410156 C 378.675781 201.777344 379.816406 201.410156 381.011719 201.410156 L 405.527344 201.410156 C 403.335938 199.945312 401.175781 198.289062 399.109375 196.519531 C 397.605469 195.214844 396.152344 193.820312 394.71875 192.328125 L 351.367188 210.824219 C 351.4375 212.890625 351.402344 214.921875 351.296875 216.914062 C 351.132812 220.378906 350.699219 223.699219 350.027344 226.832031 C 349.324219 230.023438 348.398438 233.121094 347.164062 236.082031 C 346.402344 237.980469 345.535156 239.777344 344.570312 241.503906 L 375.050781 313.09375 Z M 529.683594 239.144531 L 529.25 347.796875 L 586.675781 301.683594 C 586.371094 299.726562 586.207031 297.730469 586.171875 295.664062 C 586.101562 292.273438 586.476562 288.847656 587.203125 285.382812 C 587.90625 282.027344 589 278.566406 590.464844 275.101562 C 591.265625 273.273438 592.132812 271.441406 593.09375 269.644531 L 547.851562 234.121094 C 544.859375 235.246094 541.867188 236.222656 538.875 237.042969 C 535.777344 237.910156 532.714844 238.605469 529.683594 239.144531 Z M 481.109375 373.746094 L 481.414062 373.746094 Z M 461.179688 295.628906 C 458.65625 293.105469 455.160156 291.535156 451.265625 291.535156 C 447.402344 291.535156 443.882812 293.09375 441.347656 295.628906 C 438.824219 298.152344 437.25 301.683594 437.25 305.546875 C 437.25 309.40625 438.8125 312.929688 441.347656 315.464844 C 443.871094 317.988281 447.402344 319.558594 451.265625 319.558594 C 455.160156 319.558594 458.644531 318 461.179688 315.464844 C 463.714844 312.929688 465.300781 309.40625 465.300781 305.546875 C 465.300781 301.683594 463.714844 298.152344 461.179688 295.628906 Z M 451.277344 279.785156 C 458.398438 279.785156 464.820312 282.648438 469.503906 287.332031 C 474.160156 291.992188 477.023438 298.410156 477.023438 305.535156 C 477.023438 312.660156 474.160156 319.078125 469.503906 323.738281 C 464.808594 328.433594 458.386719 331.285156 451.277344 331.285156 C 444.164062 331.285156 437.734375 328.421875 433.074219 323.738281 C 428.414062 319.078125 425.527344 312.660156 425.527344 305.535156 C 425.527344 298.410156 428.425781 291.992188 433.074219 287.332031 C 437.734375 282.648438 444.152344 279.785156 451.277344 279.785156 Z M 529.15625 374.003906 C 532.277344 374.003906 535.378906 374.003906 538.40625 374.003906 L 664.226562 272.96875 L 542.054688 177.09375 L 511.480469 201.683594 L 523.992188 201.753906 C 527.21875 201.753906 529.8125 204.382812 529.8125 207.609375 L 529.707031 227.207031 C 531.738281 226.808594 533.734375 226.339844 535.730469 225.777344 C 539.25 224.8125 542.78125 223.617188 546.246094 222.183594 C 548.203125 221.222656 550.632812 221.386719 552.464844 222.855469 L 604.375 263.554688 L 604.339844 263.589844 C 606.699219 265.421875 607.296875 268.742188 605.664062 271.3125 C 603.902344 274.070312 602.4375 276.863281 601.238281 279.632812 C 600.113281 282.355469 599.246094 285.089844 598.644531 287.8125 C 598.082031 290.476562 597.8125 293.070312 597.847656 295.535156 C 597.882812 297.859375 598.210938 300.195312 598.8125 302.460938 C 599.410156 304.621094 598.707031 307.046875 596.816406 308.550781 L 529.179688 362.878906 Z M 506.601562 373.910156 L 508.125 373.910156 L 509.160156 373.945312 L 509.324219 373.945312 C 511.117188 373.945312 512.878906 373.945312 514.652344 373.945312 L 514.757812 373.945312 L 517.457031 373.980469 L 517.457031 360.402344 C 517.421875 359.929688 517.457031 359.472656 517.527344 359.039062 L 518.03125 234.519531 C 517.996094 234.214844 517.996094 233.886719 518.03125 233.59375 L 518.125 213.394531 L 451.992188 213.03125 L 386.890625 213.136719 L 386.996094 372.757812 L 388.558594 372.757812 L 388.757812 372.792969 L 391.925781 372.792969 L 392.054688 372.828125 L 395.222656 372.828125 L 395.421875 372.863281 L 398.394531 372.863281 L 398.628906 372.898438 L 399.589844 372.898438 L 399.519531 271.136719 C 399.519531 269.105469 400.585938 267.308594 402.183594 266.242188 L 402.148438 266.242188 C 404.050781 264.972656 405.84375 263.542969 407.5 261.886719 C 409.226562 260.1875 410.855469 258.226562 412.394531 256.066406 C 413.894531 253.941406 415.257812 251.570312 416.523438 249.011719 C 417.792969 246.417969 418.882812 243.71875 419.753906 240.960938 C 420.585938 238.402344 423.015625 236.773438 425.574219 236.902344 L 480.734375 236.832031 C 483.328125 236.832031 485.523438 238.53125 486.285156 240.890625 C 487.210938 243.753906 488.316406 246.441406 489.546875 248.941406 C 490.746094 251.441406 492.140625 253.765625 493.703125 255.996094 C 495.203125 258.121094 496.824219 260.09375 498.5625 261.78125 C 500.261719 263.449219 502.058594 264.902344 503.914062 266.113281 C 505.671875 267.273438 506.636719 269.269531 506.578125 271.265625 Z M 481.414062 373.746094 L 483.316406 373.746094 L 486.835938 373.78125 L 487.070312 373.78125 L 488.9375 373.816406 L 491.109375 373.816406 L 494.898438 373.851562 L 494.828125 274.046875 C 493.269531 272.847656 491.730469 271.523438 490.296875 270.089844 C 488.035156 267.863281 485.96875 265.398438 484.078125 262.710938 C 482.210938 260.117188 480.523438 257.21875 478.984375 254.09375 C 478.082031 252.265625 477.285156 250.433594 476.554688 248.507812 L 429.445312 248.578125 C 428.683594 250.503906 427.886719 252.371094 427.019531 254.164062 C 425.515625 257.230469 423.824219 260.117188 421.925781 262.816406 C 420.023438 265.515625 417.96875 267.96875 415.703125 270.195312 C 414.238281 271.628906 412.746094 272.957031 411.175781 274.152344 L 411.210938 373.027344 L 413.875 373.027344 L 414.402344 373.0625 L 416.9375 373.0625 L 417.007812 373.097656 L 419.460938 373.097656 L 420.09375 373.132812 L 422.664062 373.132812 L 423.296875 373.167969 L 425.867188 373.167969 L 426.429688 373.203125 L 428.53125 373.203125 L 429.328125 373.238281 L 431.734375 373.238281 L 432.097656 373.277344 L 434.929688 373.277344 L 435.023438 373.3125 L 437.886719 373.3125 L 438.121094 373.347656 L 440.785156 373.347656 L 441.347656 373.382812 L 443.648438 373.382812 L 444.550781 373.417969 L 446.710938 373.417969 L 447.214844 373.453125 L 449.949219 373.453125 L 450.878906 373.488281 L 453.179688 373.488281 L 453.742188 373.523438 L 456.394531 373.523438 L 456.628906 373.558594 L 459.65625 373.558594 L 460.558594 373.59375 L 462.894531 373.59375 L 464.363281 373.628906 L 466.296875 373.628906 L 466.769531 373.664062 L 469.597656 373.664062 L 470.03125 373.699219 L 472.496094 373.699219 L 473.597656 373.734375 L 476.835938 373.734375 L 477.636719 373.769531 L 478.269531 373.769531 L 468.257812 373.675781 Z M 373.792969 367.113281 L 375.296875 368.980469 L 375.261719 343.5 L 332.613281 243.296875 C 331.777344 241.339844 332.109375 239.167969 333.28125 237.570312 C 334.476562 235.738281 335.511719 233.746094 336.378906 231.644531 C 337.285156 229.449219 338.011719 227.019531 338.574219 224.390625 C 339.136719 221.796875 339.476562 219.0625 339.640625 216.304688 C 339.769531 213.441406 339.746094 210.519531 339.476562 207.585938 C 339.207031 204.992188 340.710938 202.632812 343 201.660156 L 393.933594 179.933594 C 396.398438 178.867188 399.191406 179.664062 400.789062 181.660156 C 402.710938 183.855469 404.707031 185.851562 406.808594 187.644531 C 408.933594 189.511719 411.136719 191.109375 413.355469 192.503906 C 415.585938 193.867188 417.851562 195.027344 420.105469 195.929688 C 422.265625 196.800781 424.460938 197.433594 426.722656 197.832031 C 428.753906 198.160156 430.386719 199.558594 431.113281 201.351562 L 443.121094 201.316406 L 418.472656 143.398438 L 300.042969 193.867188 Z M 307.859375 350.484375 C 292.191406 334.816406 270.597656 325.132812 246.714844 325.132812 C 222.832031 325.132812 201.203125 334.816406 185.570312 350.484375 C 169.9375 366.117188 160.253906 387.746094 160.253906 411.59375 C 160.253906 435.476562 169.9375 457.105469 185.570312 472.738281 C 201.203125 488.40625 222.832031 498.089844 246.714844 498.089844 C 270.597656 498.089844 292.191406 488.40625 307.859375 472.738281 C 323.492188 457.105469 333.175781 435.476562 333.175781 411.59375 C 333.175781 387.746094 323.492188 366.117188 307.859375 350.484375 Z M 247.773438 509.800781 C 247.40625 509.800781 247.042969 509.800781 246.703125 509.800781 C 219.59375 509.800781 195.042969 498.828125 177.238281 481.058594 C 171.253906 475.074219 166.03125 468.277344 161.734375 460.933594 L 157.34375 463.035156 C 154.714844 464.300781 152.851562 466.53125 151.957031 469.089844 C 151.054688 471.683594 151.125 474.617188 152.390625 477.234375 L 228.875 636.1875 C 230.144531 638.816406 232.375 640.683594 234.933594 641.574219 C 237.492188 642.476562 240.425781 642.40625 243.054688 641.140625 L 288.625 619.21875 C 291.253906 617.949219 293.121094 615.71875 294.011719 613.160156 C 294.914062 610.601562 294.84375 607.667969 293.578125 605.039062 L 292.214844 602.175781 C 292.109375 602.046875 292.050781 601.871094 291.980469 601.707031 Z M 337.4375 373.96875 C 342.257812 385.539062 344.921875 398.285156 344.921875 411.59375 C 344.921875 438.738281 333.914062 463.292969 316.148438 481.058594 C 301.40625 495.800781 281.984375 505.882812 260.292969 508.875 L 300.75 592.976562 L 331.320312 588.023438 C 331.589844 587.988281 331.882812 587.953125 332.191406 587.953125 C 372.644531 587.589844 395.496094 588.023438 420.152344 588.480469 C 440.113281 588.878906 461.273438 589.277344 496.566406 589.277344 C 508.242188 589.277344 516.058594 584.21875 520.449219 577.566406 C 522.644531 574.269531 524.003906 570.582031 524.578125 566.921875 C 525.179688 563.292969 525.015625 559.738281 524.109375 556.675781 C 523.042969 552.957031 520.847656 549.949219 517.65625 548.625 L 517.585938 548.625 L 517.257812 548.496094 C 516.953125 548.402344 516.691406 548.296875 516.386719 548.226562 C 516.152344 548.15625 515.917969 548.097656 515.71875 548.027344 L 471.003906 549.257812 C 467.777344 549.351562 465.078125 546.792969 464.984375 543.566406 C 464.914062 540.339844 467.449219 537.640625 470.675781 537.582031 L 523.136719 536.113281 C 523.5 536.078125 523.839844 536.113281 524.167969 536.148438 C 526.199219 536.054688 528.359375 535.914062 530.355469 535.820312 C 532.949219 535.65625 535.28125 535.515625 536.878906 535.386719 L 536.878906 535.421875 L 537.042969 535.386719 C 544.824219 535.023438 550.1875 528.730469 552.617188 521.113281 C 553.683594 517.886719 554.214844 514.460938 554.214844 511.105469 C 554.214844 507.804688 553.707031 504.613281 552.652344 501.820312 C 550.726562 496.527344 546.761719 492.667969 540.574219 492.644531 L 473.972656 494.109375 C 470.746094 494.144531 468.082031 491.585938 468.023438 488.359375 C 467.953125 485.132812 470.523438 482.46875 473.75 482.410156 L 540.386719 480.941406 L 540.550781 480.941406 C 547.875 480.941406 552.664062 475.683594 554.824219 468.996094 C 555.75 466.039062 556.21875 462.867188 556.21875 459.675781 C 556.21875 456.484375 555.75 453.292969 554.824219 450.359375 C 552.664062 443.632812 547.875 438.386719 540.550781 438.386719 L 473.515625 439.855469 C 470.289062 439.925781 467.589844 437.332031 467.53125 434.105469 C 467.496094 430.875 470.054688 428.210938 473.28125 428.152344 L 540.375 426.6875 C 540.445312 426.6875 540.503906 426.6875 540.574219 426.6875 C 547.992188 426.652344 552.652344 421.394531 554.753906 414.738281 C 555.65625 411.816406 556.113281 408.71875 556.113281 405.621094 L 556.113281 405.585938 C 556.148438 402.464844 555.714844 399.328125 554.847656 396.464844 C 553.015625 390.375 549.261719 385.65625 543.839844 385.691406 L 540.8125 385.691406 C 540.613281 385.691406 540.410156 385.691406 540.210938 385.691406 C 534.753906 385.691406 529.097656 385.691406 523.3125 385.691406 L 521.585938 385.691406 L 521.257812 385.65625 L 512.878906 385.65625 L 512.574219 385.621094 L 506.210938 385.621094 L 505.847656 385.585938 L 500.800781 385.585938 L 500.132812 385.550781 L 499.664062 385.550781 L 495.472656 385.515625 L 491.648438 385.515625 L 490.921875 385.480469 L 487.023438 385.480469 L 486.355469 385.445312 L 483.292969 385.445312 L 482.363281 385.410156 L 479.535156 385.410156 L 478.867188 385.375 L 475.605469 385.375 L 475.371094 385.339844 L 471.871094 385.339844 L 470.96875 385.304688 L 468.328125 385.304688 L 468.09375 385.269531 L 466.003906 385.269531 L 464.84375 385.234375 L 461.699219 385.234375 L 461.296875 385.199219 L 458.5625 385.199219 L 457.765625 385.164062 L 455.429688 385.164062 L 454.761719 385.128906 L 452.425781 385.128906 L 451.898438 385.09375 L 449.035156 385.09375 L 448.367188 385.058594 L 446.007812 385.058594 L 445.207031 385.023438 L 443.15625 385.023438 L 442.519531 384.988281 L 440.078125 384.988281 L 439.515625 384.953125 L 436.675781 384.953125 L 435.75 384.917969 L 433.835938 384.917969 L 433.203125 384.882812 L 430.878906 384.882812 L 430.082031 384.847656 L 428.226562 384.847656 L 426.359375 384.8125 L 425.09375 384.8125 L 406.363281 384.578125 L 403.535156 384.578125 L 403.300781 384.542969 L 400.683594 384.542969 L 400.316406 384.507812 L 397.453125 384.507812 L 397.089844 384.472656 L 393.957031 384.472656 L 393.828125 384.4375 L 390.742188 384.4375 L 390.4375 384.402344 L 387.949219 384.402344 L 386.984375 384.367188 L 384.578125 384.367188 L 383.582031 384.332031 C 382.820312 384.695312 382.019531 384.859375 381.152344 384.859375 C 380.25 384.859375 379.390625 384.660156 378.628906 384.296875 L 375.671875 384.261719 C 373.875 384.355469 372.082031 383.589844 370.847656 382.101562 L 365.519531 375.445312 C 364.722656 374.847656 364.089844 374.085938 363.65625 373.121094 L 354.804688 362.078125 Z M 222.691406 428.199219 C 222.421875 425.007812 224.792969 422.144531 227.984375 421.851562 C 231.210938 421.582031 234.074219 423.953125 234.335938 427.179688 C 234.535156 429.304688 235.859375 431.296875 237.855469 432.800781 C 240.121094 434.527344 243.207031 435.558594 246.703125 435.558594 C 250.332031 435.558594 253.59375 434.398438 255.882812 432.53125 C 257.839844 430.933594 259.074219 428.8125 259.074219 426.546875 C 259.074219 419.996094 252.324219 418.695312 245.601562 417.367188 C 234.085938 415.136719 222.574219 412.910156 222.574219 396.710938 C 222.574219 390.761719 225.4375 385.433594 230.097656 381.644531 C 233.019531 379.25 236.644531 377.488281 240.707031 376.585938 L 240.707031 371.890625 C 240.707031 368.628906 243.335938 366.035156 246.597656 366.035156 L 246.890625 366.035156 C 250.117188 366.105469 252.675781 368.757812 252.617188 371.984375 L 252.523438 376.539062 C 256.644531 377.441406 260.339844 379.203125 263.296875 381.632812 C 267.921875 385.421875 270.785156 390.75 270.785156 396.699219 C 270.785156 399.964844 268.15625 402.59375 264.929688 402.59375 C 261.703125 402.59375 259.074219 399.964844 259.074219 396.699219 C 259.074219 394.4375 257.839844 392.3125 255.882812 390.714844 C 253.582031 388.8125 250.332031 387.6875 246.703125 387.6875 C 243.042969 387.6875 239.816406 388.8125 237.527344 390.714844 C 235.566406 392.3125 234.335938 394.4375 234.335938 396.699219 C 234.335938 403.25 241.082031 404.550781 247.808594 405.878906 C 259.320312 408.109375 270.796875 410.339844 270.796875 426.535156 C 270.796875 432.484375 267.933594 437.8125 263.308594 441.601562 C 260.351562 444.03125 256.65625 445.792969 252.558594 446.695312 L 252.453125 450.488281 L 252.453125 451.355469 C 252.453125 454.582031 249.824219 457.210938 246.597656 457.210938 C 243.335938 457.210938 240.707031 454.582031 240.707031 451.355469 L 240.707031 446.660156 C 236.988281 445.828125 233.582031 444.265625 230.789062 442.144531 C 226.246094 438.714844 223.21875 433.785156 222.691406 428.199219 Z M 222.691406 428.199219 " fill-opacity="1" fill-rule="nonzero"/></g><g clip-path="url(#f108a77663)"><g clip-path="url(#b8db79d474)"><path fill="#000000" d="M 176 338.523438 L 318.691406 338.523438 L 318.691406 481.214844 L 176 481.214844 Z M 176 338.523438 " fill-opacity="1" fill-rule="nonzero"/></g></g><g clip-path="url(#9af309498a)"><path fill="#ffffff" d="M 259.375 366.476562 L 276.9375 366.476562 L 283.664062 356.367188 L 217.730469 356.367188 L 211.007812 366.476562 L 222.449219 366.476562 C 234.042969 366.476562 244.742188 367.371094 249.023438 377.066406 L 217.730469 377.066406 L 211.007812 387.175781 L 250.285156 387.175781 C 250.285156 387.199219 250.285156 387.21875 250.285156 387.242188 C 250.285156 394.507812 244.246094 405.652344 224.308594 405.652344 L 214.664062 405.640625 L 214.675781 415.085938 L 253.308594 463.371094 L 270.511719 463.371094 L 230.527344 413.417969 C 246.984375 412.53125 262.421875 403.332031 264.648438 387.175781 L 276.9375 387.175781 L 283.664062 377.066406 L 264.472656 377.066406 C 263.699219 373.171875 262.015625 369.402344 259.375 366.476562 Z M 259.375 366.476562 " fill-opacity="1" fill-rule="nonzero"/></g></svg>